<?xml version="1.0" encoding="UTF-8" standalone="no"?>
<!-- Created with Inkscape (http://www.inkscape.org/) -->

<svg
   width="256"
   height="256"
   viewBox="0 0 67.73333 67.733331"
   version="1.1"
   id="svg1"
   xml:space="preserve"
   xmlns="http://www.w3.org/2000/svg"
   xmlns:svg="http://www.w3.org/2000/svg"><defs
     id="defs1"><linearGradient
       id="swatch4"><stop
         style="stop-color:#000000;stop-opacity:1;"
         offset="0"
         id="stop4" /></linearGradient><linearGradient
       id="swatch3"><stop
         style="stop-color:#000000;stop-opacity:1;"
         offset="0"
         id="stop3" /></linearGradient></defs><g
     id="layer3"
     style="display:inline"><path
       style="display:inline;fill:none;fill-opacity:1;stroke:#000000;stroke-width:2.5;stroke-linecap:butt;stroke-linejoin:round;stroke-dasharray:none;stroke-opacity:1;paint-order:normal"
       d="M 45.358881,61.310003 24.589323,61.479442 C 19.566897,40.450168 50.919641,41.589467 45.358881,61.310003 Z M 28.713707,21.208959 c 0,0 -2.286072,2.728878 0.492633,5.321712 L 43.576433,39.66653 54.057391,39.760749 35.886985,23.549476 50.932662,6.764701 c 3.624739,0.6808676 4.360428,4.561337 4.360428,4.561337 l -0.08877,45.539944 -2.372689,2.52476 c 1.552296,-28.188195 -39.905767,-24.622257 -35.828548,1.94283 0,0 -3.622585,-0.0037 -4.562911,-3.525981 V 10.932807 c 0,0 0.980733,-3.7958838 5.403056,-4.4564785 l -0.05662,33.4779225 3.84134,-3.222871 3.830339,2.991124 0.134061,-33.4246714 7.822221,-0.022056 7.822215,-0.022056 z m 24.038284,39.596838 v 4.8e-5 z"
       id="path1" /></g></svg>
